<svg width="48" height="42" viewBox="0 0 48 42" fill="none" xmlns="http://www.w3.org/2000/svg">
<path fill-rule="evenodd" clip-rule="evenodd" d="M47.9994 20.5891C47.9994 21.3691 47.6897 22.1172 47.1379 22.6688C46.5865 23.2204 45.8385 23.5303 45.0582 23.5303H10.9818L23.6113 36.1538C23.8847 36.4274 24.1016 36.7518 24.2496 37.1091C24.3976 37.4665 24.4738 37.8494 24.4738 38.2362C24.4738 38.6229 24.3976 39.0059 24.2496 39.3632C24.1016 39.7203 23.8847 40.045 23.6113 40.3185C23.3378 40.5921 23.0132 40.8088 22.6559 40.9568C22.2986 41.105 21.9156 41.1809 21.5289 41.1809C21.1422 41.1809 20.7593 41.105 20.402 40.9568C20.0447 40.8088 19.72 40.5921 19.4466 40.3185L1.79949 22.6714C1.52561 22.3982 1.30829 22.0736 1.16002 21.7163C1.01176 21.359 0.935425 20.9759 0.935425 20.5891C0.935425 20.2022 1.01176 19.8191 1.16002 19.4618C1.30829 19.1045 1.52561 18.7799 1.79949 18.5067L19.4466 0.859667C19.9988 0.307394 20.7479 -0.00287247 21.5289 -0.00287247C22.31 -0.00287247 23.059 0.307394 23.6113 0.859667C24.1636 1.41194 24.4738 2.16099 24.4738 2.94203C24.4738 3.72306 24.1636 4.47209 23.6113 5.02438L10.9818 17.6479H45.0582C45.8385 17.6479 46.5865 17.9578 47.1379 18.5094C47.6897 19.0609 47.9994 19.809 47.9994 20.5891Z" fill="#0CDA39"/>
</svg>
