<svg width="60" height="60" viewBox="0 0 60 60" fill="none" xmlns="http://www.w3.org/2000/svg">
<path d="M47.0127 33V54H5.87659V12H20.6268C20.7738 9.87 21.2733 7.86 22.0372 6H5.87659C2.64447 6 0 8.7 0 12V54C0 57.3 2.64447 60 5.87659 60H47.0127C50.2449 60 52.8893 57.3 52.8893 54V39L47.0127 33ZM42.6053 48H10.284L18.3643 37.41L24.1234 44.49L32.2037 33.87L42.6053 48ZM50.8325 20.67C52.1254 18.57 52.8893 16.14 52.8893 13.5C52.8893 6.03 46.9833 0 39.667 0C32.3506 0 26.4447 6.03 26.4447 13.5C26.4447 20.97 32.3506 27 39.6376 27C42.2233 27 44.6327 26.22 46.6601 24.9L55.8276 34.26L60 30L50.8325 20.67ZM39.667 21C35.6121 21 32.3213 17.64 32.3213 13.5C32.3213 9.36 35.6121 6 39.667 6C43.7218 6 47.0127 9.36 47.0127 13.5C47.0127 17.64 43.7218 21 39.667 21Z" fill="#666666"/>
</svg>
