<svg width="25" height="25" viewBox="0 0 25 25" fill="none" xmlns="http://www.w3.org/2000/svg">
<path d="M12.5 0C5.58929 0 0 3.9125 0 8.75C0 10.925 0.892857 12.9625 2.51786 14.8C4.21429 16.725 6.44643 18.375 8.16071 20.3C9 21.2375 9.60714 22.1125 10.25 23.125C10.7143 23.8125 11.0893 25 12.5 25C13.9107 25 14.2857 23.8125 14.7321 23.125C15.3929 22.1125 15.9821 21.2375 16.8214 20.3C18.5357 18.3875 20.7679 16.7375 22.4643 14.8C24.1071 12.9625 25 10.925 25 8.75C25 3.9125 19.4107 0 12.5 0ZM12.5 12.1875C10.0357 12.1875 8.03571 10.7875 8.03571 9.0625C8.03571 7.3375 10.0357 5.9375 12.5 5.9375C14.9643 5.9375 16.9643 7.3375 16.9643 9.0625C16.9643 10.7875 14.9643 12.1875 12.5 12.1875Z" fill="#0CDA39"/>
</svg>
