<?xml version="1.0" standalone="no"?>
<!DOCTYPE svg PUBLIC "-//W3C//DTD SVG 1.1//EN" "http://www.w3.org/Graphics/SVG/1.1/DTD/svg11.dtd" >
<svg>
<metadata>
Created by FontForge 20110222 at Wed Feb 27 15:30:32 2013
 By www-data
Typeface (c) Pcboy Digital Cartoon Studios. 2005. All Rights Reserved
</metadata>
<defs>
<font id="ADastNevis" horiz-adv-x="413" >
  <font-face 
    font-family="A Dast Nevis"
    font-weight="400"
    font-stretch="normal"
    units-per-em="2048"
    panose-1="3 0 4 0 0 0 0 0 0 0"
    ascent="1638"
    descent="-410"
    bbox="-204 -1199 3140.76 1580"
    underline-thickness="60"
    underline-position="-870"
    unicode-range="U+0020-FEDF"
  />
    <missing-glyph />
    <glyph glyph-name="uniFB7B" unicode="&#x686;" horiz-adv-x="1284" arabic-form="final" 
d="M484 703q102 0 337 -180q32 -12 60 -12q31 0 110 36q34 7 65 7q147 0 258 -103q14 -18 14 -29v-5q0 -68 -84 -99l-31 -4q-92 0 -296 45h-12q-87 0 -443 -245q-117 -77 -298 -253q-238 -255 -238 -444v-29q0 -266 216 -385q146 -96 402 -93h5q237 9 536 83q22 12 22 20
l-9 16v20q8 33 29 33q97 -47 134 -115l2 -12q-2 -67 -241 -108q-286 -46 -447 -46h-19q-280 0 -505 109q-33 12 -144 120q-77 96 -94 187q-17 68 -17 152v36q0 378 534 767q191 148 334 231q24 9 24 28q-24 57 -156 116l-34 5h-7q-85 -15 -219 -197q-95 -186 -120 -205h-10
q-10 0 -12 51v31q0 148 41 192q33 74 197 226q64 53 116 53zM1092 304.5q21 -129.5 195 -141.5q49 -5 68 -40.5t8.5 -68.5t-43.5 -47t-127.5 6.5t-175 90t-83 195t46.5 147.5t69.5 5t41.5 -146.5zM727 -459q73 0 124 -96v-20q0 -49 -88 -68h-20q-76 0 -92 116q0 59 76 68z
M1070 -159q35 0 52 -28l-26 -68q-9 -34 -590 -92h-8q-96 0 -96 52q0 66 108 88q151 24 560 48z" />
    <glyph glyph-name="uni0636" unicode="&#x636;" horiz-adv-x="2902" arabic-form="isolated" 
d="M1228 1013h58q73 0 86 -65v-17q-16 -69 -62 -69h-92q-503 0 -924 -328q-143 -130 -143 -277q0 -233 318 -390q162 -58 352 -58h75q366 0 770 260q189 129 270 349l14 44q-21 57 -21 127q8 167 52 167q0 11 48 17q92 -16 92 -119l3 -35l-13 -136q17 -35 48 -35
q31 69 232 267q239 202 421 202q138 0 175 -137l3 -34v-24q0 -171 -311 -359q-178 -93 -377 -93h-3q-48 0 -92 18q-87 -147 -93 -148h-3q-48 17 -48 86v7q0 36 24 85l-28 14q-105 -289 -431 -472q-323 -177 -691 -177q-650 0 -875 351q-62 107 -62 233q0 397 708 664
q258 82 520 82zM2285 418v-4h17q258 0 445 181q96 91 96 137q0 35 -27 35h-11q-146 0 -479 -298zM2395 1386q73 0 124 -96v-20q0 -49 -88 -68h-20q-76 0 -92 116q0 58 76 68z" />
    <glyph glyph-name="uniFEBE" unicode="&#x636;" horiz-adv-x="3061" arabic-form="final" 
d="M1330 747h58q73 0 86 -65v-17q-16 -69 -62 -69h-92q-503 0 -924 -328q-143 -130 -143 -277q0 -233 318 -390q162 -58 352 -58h75q366 0 770 260q189 130 270 349l14 44q-21 57 -21 127q8 167 52 167q0 11 48 17q92 -16 92 -119l3 -35l-13 -136q17 -35 48 -35
q31 69 232 267q239 202 421 202q138 0 175 -137l3 -34v-24q0 -171 -311 -359q-178 -93 -377 -93h-3q-48 0 -92 18q-87 -147 -93 -147h-3q-48 16 -48 86v6q0 36 24 85l-28 14q-105 -289 -431 -472q-323 -177 -691 -177q-650 0 -875 352q-62 106 -62 232q0 397 708 664
q258 82 520 82zM2387 152v-4h17q258 0 445 181q96 91 96 137q0 35 -27 35h-11q-146 0 -479 -298zM3063 158q49 -5 68 -40.5t1 -71t-43.5 -44t-92 0t-116.5 45t-70 80.5t32 93t67 21t38.5 -56.5t115.5 -27.5zM2399 1265q73 0 124 -96v-20q0 -49 -88 -68h-20q-76 0 -92 116
q0 58 76 68z" />
    <glyph glyph-name="uniFEDF" unicode="&#x644;" horiz-adv-x="400" arabic-form="initial" 
d="M154 942.5q26 28.5 72 17t67 -147t25 -353t-63.5 -332.5t-242.5 -127q-85 8 -85 70v23q0 69 85 69q100 0 134.5 104t21 260.5t-26.5 272t13 144z" />
    <glyph glyph-name="uniFDF2" unicode="&#xfdf2;" horiz-adv-x="2091" arabic-form="isolated" 
d="M1319 1488q0 -106 -26 -106q-5 7 -12 49q-11 61 -37 97l55 52q20 -33 20 -92zM1529 1254q0 -55 -29 -92q-31 -40 -85 -40q-44 0 -88 32q-60 -64 -110 -64q-42 0 -68 30.5t-26 73.5q0 65 52 102q10 7 20 7q13 0 13 -11q0 -8 -9 -20q-36 -50 -24 -72t51 -22q52 0 73 34
q11 17 13 67q2 37 19 37q6 0 25.5 -58t52.5 -58q68 0 68 39q0 12 -4 25q-16 53 10 58q20 4 34 -24q12 -23 12 -44zM1515 959.5q26 28.5 72 17t88.5 -133.5t55.5 -331t-45.5 -354.5t-233.5 -157.5q-85 8 -85 70v23q0 69 85 69q100 0 125.5 134.5t3 282.5t-57 250t-8.5 130.5z
M1370 258.5q10 -73.5 49.5 -88.5t53.5 -41t9 -62t-35 -56t-78.5 3t-95 95.5t-29.5 184t70.5 104.5t49.5 -36.5t6 -103zM1316.5 959.5q34.5 33.5 71.5 4t33 -161.5t-19 -315.5t-73.5 -329t-233.5 -157.5q-85 8 -85 70v23q0 69 85 69q100 0 128.5 130.5t37 246.5t15 251.5
t41 169zM791 488q178 0 233 -130q15 -39 23 -163q6 -33 30 -33q65 -27 65 -73v-15q0 -62 -73 -80h-57q-81 0 -106 60q-23 28 -37 226q-15 58 -58 58l-15 2h-13q-157 0 -379 -243q-77 -98 -90 -145h3l35 5h7q81 -12 81 -78l2 -3v-2q0 -95 -150 -95q-119 0 -148 102l-3 26v22
q0 140 268 384q213 175 382 175zM1949 976q59 0 78 -64l1 -14q0 -77 -36 -872q-27 -59 -76 -59h-1q-80 9 -80 73q34 721 34 858q0 59 71 78h9z" />
    <glyph glyph-name="space" unicode=" " 
 />
    <glyph glyph-name="exclam" unicode="!" horiz-adv-x="600" 
d="M175 1235.5q8 99.5 76 112t105 -155.5t39.5 -375.5t-9 -282t-68 -73t-73 189t-47.5 336.5t-23 248.5zM350 317q37 0 48 -54q0 -23 -28 -38l-3 -20v-3h17q68 -21 68 -85q0 -80 -92 -113l-24 -3q-102 0 -115 129q0 140 102 184z" />
    <glyph glyph-name="percent" unicode="%" horiz-adv-x="1507" 
d="M1023 1328q47 0 64 -101v-5q0 -47 -87 -170q-149 -251 -400 -833q-111 -219 -212 -349l-24 -5h-12q-59 0 -76 106v5q0 38 84 174q127 243 391 791q69 141 232 371q20 16 40 16zM383 1247q103 0 159 -120v-43q0 -75 -112 -99h-26q-115 0 -115 69v13q0 13 22 47
q-13 22 -13 43q14 90 85 90zM1002 168q101 0 142 -124v-34q0 -94 -107 -137l-35 -4h-4q-100 0 -154 120v8q0 44 73 103q0 57 60 68h25z" />
    <glyph glyph-name="parenleft" unicode="(" horiz-adv-x="1595" 
d="M1272 1368.5q-23 -55.5 -219.5 -316.5t-205.5 -576v-45q1 -550 477 -776q58 -39 58 -97v-7q5 -83 -78 -87.5t-253.5 140t-291 392t-89.5 544.5t253.5 631.5t297 293.5t51.5 -96.5z" />
    <glyph glyph-name="parenright" unicode=")" horiz-adv-x="1730" 
d="M429 1457l18 6q96 35 337 -187.5t310 -416.5q184 -511 -296 -1120q-191 -198 -302 -265l-7 -3q-115 -23 -125 44l-4 12q-28 77 138 208q388 327 457.5 615.5t-30 490t-291.5 312.5t-234 182t29 122z" />
    <glyph glyph-name="asterisk" unicode="*" horiz-adv-x="1008" 
d="M477 874q57 0 76 -144q6 0 12 -60h4q108 120 152 120q60 -8 60 -52v-20q0 -26 -100 -108l-28 -32h76l136 4q38 0 56 -72q0 -76 -148 -76h-116l132 -112q28 -34 28 -68q0 -42 -52 -48h-12q-68 0 -156 80v-4l4 -104v-4l4 -24q-17 -68 -60 -68h-20q-60 0 -60 124
q-7 20 -12 132q-165 -152 -236 -152h-8q-40 8 -40 40v12q0 28 84 68q106 90 144 144h-36q-103 0 -232 -44q-64 15 -64 60v16q0 66 244 104v4l-48 36q-72 41 -72 80v8q16 60 60 60h12q42 0 172 -108v8l-28 144v4q11 52 72 52z" />
    <glyph glyph-name="plus" unicode="+" horiz-adv-x="1104" 
d="M485 816q67 0 76 -112l24 -136l323 12q72 -20 72 -92q0 -63 -100 -63l-251 -8l-4 -12q60 -267 60 -319q0 -53 -76 -68h-16q-72 0 -72 119q-52 256 -60 268q-60 0 -259 -36q-52 0 -64 68v16q0 69 116 79q120 24 179 24v4q-28 146 -28 192q17 64 80 64z" />
    <glyph glyph-name="comma" unicode="," horiz-adv-x="700" 
d="M362 248h12q74 0 124 -124l4 -28q0 -140 -116 -236l-40 -8q-20 6 -20 28q0 9 68 92l12 36h-4q-80 0 -112 144v20q14 76 72 76z" />
    <glyph glyph-name="hyphen" unicode="-" horiz-adv-x="970" 
d="M632 548h14q197 0 197 -24q18 -24 18 -45v-14q0 -58 -97 -58q-432 -11 -623 -35q-48 20 -48 62v14q0 58 97 66q246 34 442 34z" />
    <glyph glyph-name="period" unicode="." horiz-adv-x="713" 
d="M251 177q73 0 124 -96v-20q0 -49 -88 -68h-20q-76 0 -92 116q0 58 76 68z" />
    <glyph glyph-name="slash" unicode="/" horiz-adv-x="830" 
d="M685 1147q83 -27 76 -98l-2 -30q-378 -983 -485 -1139q-71 -91 -102 -88l-22 2q-41 3 -42 83l1 12q15 168 205 529q272 643 311 705q34 27 60 24z" />
    <glyph glyph-name="zero" unicode="0" horiz-adv-x="757" 
d="M356 571h40q140 0 204 -148l8 -56q0 -123 -140 -176q-25 -12 -64 -12h-36q-117 0 -192 108q-24 39 -24 80v28q0 83 88 144zM312 419l-4 -20q0 -46 64 -56h16q20 0 48 16q0 44 -108 48z" />
    <glyph glyph-name="zero" unicode="&#x6f0;" horiz-adv-x="757" 
d="M356 571h40q140 0 204 -148l8 -56q0 -123 -140 -176q-25 -12 -64 -12h-36q-117 0 -192 108q-24 39 -24 80v28q0 83 88 144zM312 419l-4 -20q0 -46 64 -56h16q20 0 48 16q0 44 -108 48z" />
    <glyph glyph-name="zero" unicode="&#x660;" horiz-adv-x="757" 
d="M356 571h40q140 0 204 -148l8 -56q0 -123 -140 -176q-25 -12 -64 -12h-36q-117 0 -192 108q-24 39 -24 80v28q0 83 88 144zM312 419l-4 -20q0 -46 64 -56h16q20 0 48 16q0 44 -108 48z" />
    <glyph glyph-name="one" unicode="1" horiz-adv-x="478" 
d="M273 886q51 -187 127 -653l4 -55v-27q0 -151 -71 -151h-8q-85 0 -94 141q-7 134 -154 875v11q0 61 71 76q65 0 125 -217z" />
    <glyph glyph-name="one" unicode="&#x6f1;" horiz-adv-x="478" 
d="M273 886q51 -187 127 -653l4 -55v-27q0 -151 -71 -151h-8q-85 0 -94 141q-7 134 -154 875v11q0 61 71 76q65 0 125 -217z" />
    <glyph glyph-name="one" unicode="&#x661;" horiz-adv-x="478" 
d="M273 886q51 -187 127 -653l4 -55v-27q0 -151 -71 -151h-8q-85 0 -94 141q-7 134 -154 875v11q0 61 71 76q65 0 125 -217z" />
    <glyph glyph-name="two" unicode="2" horiz-adv-x="929" 
d="M806 1106h25q43 0 55 -65q-71 -220 -220 -305q-84 -35 -140 -35l-51 5h-20q197 -408 226 -631q-19 -75 -75 -75h-25q-82 0 -96 135q-93 348 -200 546l-183 314l-5 25v10q15 80 75 80h35q27 0 93 -116t211 -123q145 7 270 230z" />
    <glyph glyph-name="two" unicode="&#x6f2;" horiz-adv-x="929" 
d="M806 1106h25q43 0 55 -65q-71 -220 -220 -305q-84 -35 -140 -35l-51 5h-20q197 -408 226 -631q-19 -75 -75 -75h-25q-82 0 -96 135q-93 348 -200 546l-183 314l-5 25v10q15 80 75 80h35q27 0 93 -116t211 -123q145 7 270 230z" />
    <glyph glyph-name="two" unicode="&#x662;" horiz-adv-x="929" 
d="M806 1106h25q43 0 55 -65q-71 -220 -220 -305q-84 -35 -140 -35l-51 5h-20q197 -408 226 -631q-19 -75 -75 -75h-25q-82 0 -96 135q-93 348 -200 546l-183 314l-5 25v10q15 80 75 80h35q27 0 93 -116t211 -123q145 7 270 230z" />
    <glyph glyph-name="three" unicode="3" horiz-adv-x="1055" 
d="M256 1015q73 -105 166 -114q92 17 87 105q-4 88 54 82h15q40 0 71 -108q31 -106 91 -120t83 48q23 64 19 121q-4 60 46 71t65 -55q16 -64 -14 -188q-30 -122 -151 -132q-120 -11 -191 110h-4q-68 -141 -201 -92q85 -202 154 -539l23 -136q0 -56 -72 -68h-11q-66 0 -76 94
q-99 458 -171 608q-69 146 -164 312l-4 23v8q0 62 79 75q33 0 106 -105z" />
    <glyph glyph-name="three" unicode="&#x6f3;" horiz-adv-x="1055" 
d="M256 1015q73 -105 166 -114q92 17 87 105q-4 88 54 82h15q40 0 71 -108q31 -106 91 -120t83 48q23 64 19 121q-4 60 46 71t65 -55q16 -64 -14 -188q-30 -122 -151 -132q-120 -11 -191 110h-4q-68 -141 -201 -92q85 -202 154 -539l23 -136q0 -56 -72 -68h-11q-66 0 -76 94
q-99 458 -171 608q-69 146 -164 312l-4 23v8q0 62 79 75q33 0 106 -105z" />
    <glyph glyph-name="three" unicode="&#x663;" horiz-adv-x="1055" 
d="M256 1015q73 -105 166 -114q92 17 87 105q-4 88 54 82h15q40 0 71 -108q31 -106 91 -120t83 48q23 64 19 121q-4 60 46 71t65 -55q16 -64 -14 -188q-30 -122 -151 -132q-120 -11 -191 110h-4q-68 -141 -201 -92q85 -202 154 -539l23 -136q0 -56 -72 -68h-11q-66 0 -76 94
q-99 458 -171 608q-69 146 -164 312l-4 23v8q0 62 79 75q33 0 106 -105z" />
    <glyph glyph-name="four" unicode="4" horiz-adv-x="1142" 
d="M511 883v4q0 174 281 311l17 4h17q55 -13 55 -55v-17q0 -42 -106 -81q-106 -76 -106 -166q13 -85 85 -85l21 -4l208 17q77 -21 77 -81v-5q0 -67 -145 -89q-96 -17 -178 -17h-43q-110 0 -255 30q167 -287 187 -585v-17q0 -45 -72 -59q-81 9 -81 76q-18 225 -149 487
q-121 198 -189 269q-68 74 -60 129q7 58 66 59q58 3 127 -99q71 -102 269 -124q-26 49 -26 98z" />
    <glyph glyph-name="four" unicode="&#x6f4;" horiz-adv-x="1142" 
d="M511 883v4q0 174 281 311l17 4h17q55 -13 55 -55v-17q0 -42 -106 -81q-106 -76 -106 -166q13 -85 85 -85l21 -4l208 17q77 -21 77 -81v-5q0 -67 -145 -89q-96 -17 -178 -17h-43q-110 0 -255 30q167 -287 187 -585v-17q0 -45 -72 -59q-81 9 -81 76q-18 225 -149 487
q-121 198 -189 269q-68 74 -60 129q7 58 66 59q58 3 127 -99q71 -102 269 -124q-26 49 -26 98z" />
    <glyph glyph-name="four" unicode="&#x664;" horiz-adv-x="1142" 
d="M511 883v4q0 174 281 311l17 4h17q55 -13 55 -55v-17q0 -42 -106 -81q-106 -76 -106 -166q13 -85 85 -85l21 -4l208 17q77 -21 77 -81v-5q0 -67 -145 -89q-96 -17 -178 -17h-43q-110 0 -255 30q167 -287 187 -585v-17q0 -45 -72 -59q-81 9 -81 76q-18 225 -149 487
q-121 198 -189 269q-68 74 -60 129q7 58 66 59q58 3 127 -99q71 -102 269 -124q-26 49 -26 98z" />
    <glyph glyph-name="five" unicode="5" horiz-adv-x="1096" 
d="M293 808q325 0 615 -277q94 -127 94 -226v-47q0 -189 -207 -239h-65q-136 0 -263 127q-122 -146 -235 -146q-133 0 -155 178l-5 19q0 224 282 423h5v5q-155 5 -155 70l-5 28q7 85 75 85h19zM331 406q-109 -108 -109 -228q6 -37 33 -37q81 0 179 131q0 38 56 47
q32 -2 141 -122q55 -37 108 -37h9q108 11 108 80l5 18q0 117 -225 268q-62 38 -80 38q-115 -49 -225 -158z" />
    <glyph glyph-name="five" unicode="&#x6f5;" horiz-adv-x="1096" 
d="M293 808q325 0 615 -277q94 -127 94 -226v-47q0 -189 -207 -239h-65q-136 0 -263 127q-122 -146 -235 -146q-133 0 -155 178l-5 19q0 224 282 423h5v5q-155 5 -155 70l-5 28q7 85 75 85h19zM331 406q-109 -108 -109 -228q6 -37 33 -37q81 0 179 131q0 38 56 47
q32 -2 141 -122q55 -37 108 -37h9q108 11 108 80l5 18q0 117 -225 268q-62 38 -80 38q-115 -49 -225 -158z" />
    <glyph glyph-name="five" unicode="&#x665;" horiz-adv-x="1096" 
d="M293 808q325 0 615 -277q94 -127 94 -226v-47q0 -189 -207 -239h-65q-136 0 -263 127q-122 -146 -235 -146q-133 0 -155 178l-5 19q0 224 282 423h5v5q-155 5 -155 70l-5 28q7 85 75 85h19zM331 406q-109 -108 -109 -228q6 -37 33 -37q81 0 179 131q0 38 56 47
q32 -2 141 -122q55 -37 108 -37h9q108 11 108 80l5 18q0 117 -225 268q-62 38 -80 38q-115 -49 -225 -158z" />
    <glyph glyph-name="six" unicode="6" horiz-adv-x="1105" 
d="M535 1201q29 -10 42 -37q14 -28 4 -57q-11 -33 -46 -54q-136 -63 -160 -78q-79 -53 -107 -141q-35 -117 9 -135q73 -29 255 23q99 29 184 67q61 79 118 114q44 28 87 28q39 2 73 -22q110 -109 -174 -247q-28 -36 -52 -73q-150 -222 -176 -267q-80 -140 -114 -294
q-16 -38 -46 -54q-27 -14 -56 -5q-29 8 -44 35q-16 30 -7 70q38 175 236 490q-122 -33 -233 -37q-100 -4 -156 53l-55 55q-11 14 -15 50q-12 121 13 195q55 165 200 249q-3 -2 150 67q38 16 70 5z" />
    <glyph glyph-name="six" unicode="&#x6f6;" horiz-adv-x="1105" 
d="M535 1201q29 -10 42 -37q14 -28 4 -57q-11 -33 -46 -54q-136 -63 -160 -78q-79 -53 -107 -141q-35 -117 9 -135q73 -29 255 23q99 29 184 67q61 79 118 114q44 28 87 28q39 2 73 -22q110 -109 -174 -247q-28 -36 -52 -73q-150 -222 -176 -267q-80 -140 -114 -294
q-16 -38 -46 -54q-27 -14 -56 -5q-29 8 -44 35q-16 30 -7 70q38 175 236 490q-122 -33 -233 -37q-100 -4 -156 53l-55 55q-11 14 -15 50q-12 121 13 195q55 165 200 249q-3 -2 150 67q38 16 70 5z" />
    <glyph glyph-name="six" unicode="&#x666;" horiz-adv-x="1105" 
d="M535 1201q29 -10 42 -37q14 -28 4 -57q-11 -33 -46 -54q-136 -63 -160 -78q-79 -53 -107 -141q-35 -117 9 -135q73 -29 255 23q99 29 184 67q61 79 118 114q44 28 87 28q39 2 73 -22q110 -109 -174 -247q-28 -36 -52 -73q-150 -222 -176 -267q-80 -140 -114 -294
q-16 -38 -46 -54q-27 -14 -56 -5q-29 8 -44 35q-16 30 -7 70q38 175 236 490q-122 -33 -233 -37q-100 -4 -156 53l-55 55q-11 14 -15 50q-12 121 13 195q55 165 200 249q-3 -2 150 67q38 16 70 5z" />
    <glyph glyph-name="seven" unicode="7" horiz-adv-x="1009" 
d="M920 871q-29 -94 -132 -271q-102 -177 -166 -381l-10 -31l-38 -160q-16 -56 -108 -43q-42 13 -89 249q-85 305 -186 473q-100 169 -84 217l5 16q14 44 84 39l10 -2q135 -95 314 -590q184 494 244 549t118 30q59 -24 41 -84z" />
    <glyph glyph-name="seven" unicode="&#x6f7;" horiz-adv-x="1009" 
d="M920 871q-29 -94 -132 -271q-102 -177 -166 -381l-10 -31l-38 -160q-16 -56 -108 -43q-42 13 -89 249q-85 305 -186 473q-100 169 -84 217l5 16q14 44 84 39l10 -2q135 -95 314 -590q184 494 244 549t118 30q59 -24 41 -84z" />
    <glyph glyph-name="seven" unicode="&#x667;" horiz-adv-x="1009" 
d="M920 871q-29 -94 -132 -271q-102 -177 -166 -381l-10 -31l-38 -160q-16 -56 -108 -43q-42 13 -89 249q-85 305 -186 473q-100 169 -84 217l5 16q14 44 84 39l10 -2q135 -95 314 -590q184 494 244 549t118 30q59 -24 41 -84z" />
    <glyph glyph-name="eight" unicode="8" horiz-adv-x="1163" 
d="M583 1030q56 -4 207 -330q154 -330 251 -609l-4 -48q-35 -71 -111 -46q-52 15 -72 82q-17 59 -197 521l-88 188q-88 -251 -208 -583q-82 -230 -164 -200q-58 22 -25 139q36 121 145 372q112 252 181 469q30 49 85 45z" />
    <glyph glyph-name="eight" unicode="&#x6f8;" horiz-adv-x="1163" 
d="M583 1030q56 -4 207 -330q154 -330 251 -609l-4 -48q-35 -71 -111 -46q-52 15 -72 82q-17 59 -197 521l-88 188q-88 -251 -208 -583q-82 -230 -164 -200q-58 22 -25 139q36 121 145 372q112 252 181 469q30 49 85 45z" />
    <glyph glyph-name="eight" unicode="&#x668;" horiz-adv-x="1163" 
d="M583 1030q56 -4 207 -330q154 -330 251 -609l-4 -48q-35 -71 -111 -46q-52 15 -72 82q-17 59 -197 521l-88 188q-88 -251 -208 -583q-82 -230 -164 -200q-58 22 -25 139q36 121 145 372q112 252 181 469q30 49 85 45z" />
    <glyph glyph-name="nine" unicode="9" horiz-adv-x="984" 
d="M728 771q82 0 82 -69v-18q0 -21 -32 -55q29 -254 174 -491l10 -60q0 -58 -83 -78q-99 0 -197 294l-74 294q-89 -19 -170 -19h-69q-212 0 -289 161l-9 64q0 173 184 294q56 19 105 23q236 0 368 -340zM236 817q0 -73 170 -73h23l129 9v5q-86 197 -184 197
q-100 0 -138 -129v-9z" />
    <glyph glyph-name="nine" unicode="&#x6f9;" horiz-adv-x="984" 
d="M728 771q82 0 82 -69v-18q0 -21 -32 -55q29 -254 174 -491l10 -60q0 -58 -83 -78q-99 0 -197 294l-74 294q-89 -19 -170 -19h-69q-212 0 -289 161l-9 64q0 173 184 294q56 19 105 23q236 0 368 -340zM236 817q0 -73 170 -73h23l129 9v5q-86 197 -184 197
q-100 0 -138 -129v-9z" />
    <glyph glyph-name="nine" unicode="&#x669;" horiz-adv-x="984" 
d="M728 771q82 0 82 -69v-18q0 -21 -32 -55q29 -254 174 -491l10 -60q0 -58 -83 -78q-99 0 -197 294l-74 294q-89 -19 -170 -19h-69q-212 0 -289 161l-9 64q0 173 184 294q56 19 105 23q236 0 368 -340zM236 817q0 -73 170 -73h23l129 9v5q-86 197 -184 197
q-100 0 -138 -129v-9z" />
    <glyph glyph-name="colon" unicode=":" horiz-adv-x="448" 
d="M190 695q73 0 124 -96v-20q0 -49 -88 -68h-20q-76 0 -92 116q0 58 76 68zM195 290q73 0 124 -96v-20q0 -49 -88 -68h-20q-76 0 -92 116q0 58 76 68z" />
    <glyph glyph-name="equal" unicode="=" horiz-adv-x="991" 
d="M807 603q57 -8 70 -79l-3 -23q-7 -56 -128 -40q-294 22 -570 2q-73 28 -66 79l2 15q7 51 222 53.5t465 -10.5l4 4zM735 376l8 -1q110 -8 132 -86l-1 -3q-3 -47 -111 -58l-69 1l-110 8l-420 6q-48 16 -46 50l1 18q5 69 111 62q384 11 505 3z" />
    <glyph glyph-name="bracketleft" unicode="[" horiz-adv-x="1317" 
d="M945 1433q372 -10 372 -52l4 -32q-8 -36 -60 -36q-67 -24 -720 -36v-4q56 -144 56 -272l-8 -504l4 -236v-120q0 -170 120 -228q92 -36 204 -36l272 4q200 0 200 -48l4 -20q0 -56 -92 -56q-212 -44 -368 -44h-28q-361 0 -452 260q-12 64 -12 136v352l24 480v12
q0 214 -92 352l-4 20v16q0 64 120 64q241 28 456 28z" />
    <glyph glyph-name="bracketright" unicode="]" horiz-adv-x="1396" 
d="M409 1403q230 0 532 -40q32 -24 32 -56v-20l-52 -108q-44 -102 -44 -248v-44l36 -744q0 -306 -192 -404q-115 -60 -292 -60q-174 0 -456 60q-24 23 -24 56q0 52 136 52l72 4l224 -4h24q247 0 316 104q28 49 28 152v340l-4 548q15 161 52 252l-624 24q-152 13 -152 52v16
q0 43 108 52q180 16 280 16z" />
    <glyph glyph-name="braceleft" unicode="{" horiz-adv-x="1043" 
d="M752 1478h24q73 0 140 -60v-24q0 -33 -48 -44l-60 8h-4q-60 0 -60 -96q0 -65 80 -384l12 -80q0 -73 -116 -132h-16q100 -139 100 -264v-36q0 -38 -84 -240l-4 -32v-20q0 -170 204 -267q48 -33 48 -60v-8q-7 -60 -60 -60q-162 42 -240 144q-92 121 -92 227q0 77 72 256
q16 58 16 104q0 149 -156 304q-16 16 -16 44q0 42 60 56q65 -20 88 -20h8q33 0 44 48v24q0 52 -60 260q-12 72 -12 128q17 224 132 224z" />
    <glyph glyph-name="braceright" unicode="}" horiz-adv-x="981" 
d="M224 1478h16q98 0 128 -132q12 -43 12 -100q0 -110 -68 -332l-4 -52v-12q0 -56 52 -56h4q25 0 84 20q60 -14 60 -56v-12q0 -20 -76 -100q-96 -119 -96 -236q0 -83 76 -264l12 -100q0 -150 -160 -292q-121 -76 -180 -76q-52 11 -52 68q0 36 128 108q124 80 124 216v36
q0 20 -80 216l-8 56v16q0 131 100 272q-76 0 -128 116v40q0 29 84 380l4 60v4q0 92 -64 92h-4l-56 -8q-48 11 -48 48v4q0 51 140 76z" />
    <glyph glyph-name="guillemotleft" unicode="&#xab;" horiz-adv-x="1666" 
d="M889 1059h12q80 -15 80 -68v-8q0 -67 -380 -416q70 -65 241 -189.5t154 -188t-65 -63.5h-12q-31 0 -128 88q-378 284 -390 301l-12 32v28q0 31 88 88q189 161 368 380q21 16 44 16zM1214 1059h12q80 -15 80 -68v-8q0 -67 -380 -416q70 -65 241 -189.5t154 -188t-65 -63.5
h-12q-31 0 -128 88q-378 284 -390 301l-12 32v28q0 31 88 88q189 161 368 380q21 16 44 16z" />
    <glyph glyph-name="guillemotleft" unicode="&#xb4;" horiz-adv-x="1666" 
d="M889 1059h12q80 -15 80 -68v-8q0 -67 -380 -416q70 -65 241 -189.5t154 -188t-65 -63.5h-12q-31 0 -128 88q-378 284 -390 301l-12 32v28q0 31 88 88q189 161 368 380q21 16 44 16zM1214 1059h12q80 -15 80 -68v-8q0 -67 -380 -416q70 -65 241 -189.5t154 -188t-65 -63.5
h-12q-31 0 -128 88q-378 284 -390 301l-12 32v28q0 31 88 88q189 161 368 380q21 16 44 16z" />
    <glyph glyph-name="guillemotright" unicode="&#xaa;" horiz-adv-x="1684" 
d="M845 126h-12q-81 15 -81 68v8q0 67 378 418q-70 64 -241.5 188t-155 187.5t64.5 63.5h12q31 0 129 -87q379 -282 391 -299l12 -32v-28q0 -31 -87 -89q-189 -162 -367 -382q-20 -16 -43 -16zM520 124h-12q-80 15 -81 68v8q0 67 378 418q-70 64 -241.5 188t-155 187.5
t64.5 63.5h12q31 0 129 -87q379 -282 391 -299l12 -32l1 -28q0 -31 -88 -89q-188 -162 -366 -381q-21 -17 -44 -17z" />
    <glyph glyph-name="guillemotright" unicode="&#xbb;" horiz-adv-x="1684" 
d="M845 126h-12q-81 15 -81 68v8q0 67 378 418q-70 64 -241.5 188t-155 187.5t64.5 63.5h12q31 0 129 -87q379 -282 391 -299l12 -32v-28q0 -31 -87 -89q-189 -162 -367 -382q-20 -16 -43 -16zM520 124h-12q-80 15 -81 68v8q0 67 378 418q-70 64 -241.5 188t-155 187.5
t64.5 63.5h12q31 0 129 -87q379 -282 391 -299l12 -32l1 -28q0 -31 -88 -89q-188 -162 -366 -381q-21 -17 -44 -17z" />
    <glyph glyph-name="multiply" unicode="&#xd7;" horiz-adv-x="918" 
d="M464 435q-190 -184 -222.5 -211t-67 -17.5t-40.5 50.5v6q0 40 111 122l129 126q-126 109 -182 159t-25.5 95.5t94 0t197.5 -171.5h2q162 172 192 172l8 3q56 -11 56 -56v-3q0 -31 -175 -189v-3q132 -114 209 -189.5t51 -116t-71 -12.5t-124.5 105.5t-141.5 129.5z" />
    <glyph glyph-name="multiply" unicode="&#x25ca;" horiz-adv-x="918" 
d="M464 435q-190 -184 -222.5 -211t-67 -17.5t-40.5 50.5v6q0 40 111 122l129 126q-126 109 -182 159t-25.5 95.5t94 0t197.5 -171.5h2q162 172 192 172l8 3q56 -11 56 -56v-3q0 -31 -175 -189v-3q132 -114 209 -189.5t51 -116t-71 -12.5t-124.5 105.5t-141.5 129.5z" />
    <glyph glyph-name="divide" unicode="&#xf7;" horiz-adv-x="974" 
d="M490 741h9q78 0 88 -92v-6q-12 -94 -78 -94h-13q-78 8 -78 60v12q0 22 12 35l-3 3v19q13 63 63 63zM790 497q45 -8 45 -72l-2 -11q-9 -58 -128 -50q-181 24 -513 19l-16 3q-37 6 -38 57l1 6q36 69 324 61.5t327 -13.5zM507 294h10q72 0 81 -101q-10 -78 -72 -78
q-91 15 -91 72v19q0 19 38 59q9 29 34 29z" />
    <glyph glyph-name="divide" unicode="&#x2dc;" horiz-adv-x="974" 
d="M490 741h9q78 0 88 -92v-6q-12 -94 -78 -94h-13q-78 8 -78 60v12q0 22 12 35l-3 3v19q13 63 63 63zM790 497q45 -8 45 -72l-2 -11q-9 -58 -128 -50q-181 24 -513 19l-16 3q-37 6 -38 57l1 6q36 69 324 61.5t327 -13.5zM507 294h10q72 0 81 -101q-10 -78 -72 -78
q-91 15 -91 72v19q0 19 38 59q9 29 34 29z" />
    <glyph glyph-name="quoteleft" unicode="&#x2018;" horiz-adv-x="688" 
d="M406.5 1539.5q13.5 -17.5 -15.5 -60.5t-43 -98q30 14 76 -22.5t21 -107.5t-120.5 -53.5t-89.5 116t52 170t76 72.5t43.5 -16.5z" />
    <glyph glyph-name="quoteright" unicode="&#x2019;" horiz-adv-x="738" 
d="M291.5 1210.5q-13.5 17.5 16 60.5t43.5 98q-30 -14 -76 23t-20.5 107.5t121 52.5t89 -116.5t-53 -169.5t-76.5 -72t-43.5 16.5z" />
    <glyph glyph-name="quotedblleft" unicode="&#x201c;" horiz-adv-x="1040" 
d="M432.5 1539.5q13.5 -17.5 -15.5 -60.5t-43 -98q30 14 76 -22.5t21 -107.5t-120.5 -53.5t-89.5 116t52 170t76 72.5t43.5 -16.5zM678.5 1539.5q13.5 -17.5 -15.5 -60.5t-43 -98q30 14 76 -22.5t21 -107.5t-120.5 -53.5t-89.5 116t52 170t76 72.5t43.5 -16.5z" />
    <glyph glyph-name="quotedblright" unicode="&#x201d;" horiz-adv-x="1028" 
d="M562 1210.5q-13 17.5 16.5 60t43.5 97.5q-30 -14 -75.5 23.5t-19.5 108t121 52t88 -117t-54 -169.5t-77 -71.5t-43 17zM316.5 1212.5q-13.5 17.5 16 60.5t44.5 98q-30 -14 -76 23.5t-20 107.5t121.5 51.5t88 -117t-54 -169t-76.5 -71.5t-43.5 16.5z" />
    <glyph glyph-name="guilsinglleft" unicode="&#x2039;" horiz-adv-x="872" 
d="M629 1059h12q80 -15 80 -68v-8q0 -67 -380 -416q70 -65 241 -189.5t154 -188t-65 -63.5h-12q-31 0 -128 88q-378 284 -390 301l-12 32v28q0 31 88 88q189 161 368 380q21 16 44 16z" />
    <glyph glyph-name="guilsinglright" unicode="&#x203a;" horiz-adv-x="748" 
d="M162 87q-51 0 -64 72v8q0 40 143.5 186t221.5 234q-172 184 -263.5 271.5t-94.5 141.5t62.5 56.5t232.5 -179.5t193.5 -214.5t23.5 -84.5q-5 -62 -43.5 -97t-209 -214.5t-202.5 -179.5z" />
  </font>
</defs>
</svg>
